<svg xmlns="http://www.w3.org/2000/svg" xmlns:xlink="http://www.w3.org/1999/xlink" viewBox="0 0 2525.71 860.89"><defs><style>.cls-1{fill:#e8308a;}.cls-2,.cls-3{fill:#2e2c62;}.cls-3{font-size:149.31px;font-family:Futura-Bold, Futura;font-weight:700;}</style></defs><g id="Layer_2" data-name="Layer 2"><g id="Layer_1-2" data-name="Layer 1"><path class="cls-1" d="M1831.21,3c-120.13,0-217.5,97.38-217.5,217.5S1711.08,438,1831.21,438s217.5-97.38,217.5-217.5S1951.33,3,1831.21,3Zm7,319a94.5,94.5,0,1,1,94.5-94.5A94.49,94.49,0,0,1,1838.21,322Z"/><path class="cls-1" d="M1598.71,8V694h35.77a85.65,85.65,0,0,0,85.65-85.64V8Z"/><polygon class="cls-2" points="1337.68 238.02 1337.68 118.11 1545.68 118.04 1545.75 238.02 1337.68 238.02"/><path class="cls-1" d="M1.71,8.84s-3.84,161.3,0,214.6c4,55.56,18.75,84.72,39,112.56,33.9,46.61,94.83,86.47,148,88,192.94,5.57,247,0,247,0V8.84H316.53S316.71,13,314.71,231c-.33,35-57.06,83.95-96,82-11-.55-91-12-93-82-2.69-94-1-222-1-222Z"/><path class="cls-1" d="M2300.21,26.73c-120.13,0-217.5,88.53-217.5,197.75s97.37,197.75,217.5,197.75,217.5-88.53,217.5-197.75S2420.33,26.73,2300.21,26.73Zm7,290c-52.2,0-94.5-38.46-94.5-85.92s42.3-85.92,94.5-85.92,94.5,38.47,94.5,85.92S2359.4,316.76,2307.21,316.76Z"/><path class="cls-1" d="M2522.69,24H2403a.45.45,0,0,0-.46.42C2403,134.36,2526,490.44,2525.7,441c-.87-157.9-2.13-316.13-2.55-416.55Z"/><path class="cls-1" d="M2094.4,446.86s-3.81,24.52,0,72.89c4,50.42,18.63,76.88,38.76,102.15,33.69,42.29,94.24,78.46,147.08,79.86,27.19.71,51.6,1.22,73.48,1.58,94.53,1.52,172-74.65,172-169.19V325H2407.27l.91,116.6c.71,89.34-43.32,161.77-97,159.47l-1.17-.05c-11-.5-90.43-10.89-92.42-74.41-2.67-85.27-1-79.61-1-79.61Z"/><path class="cls-2" d="M856.71,8.84s-3.84,161.3,0,214.6c4,55.56,18.75,84.72,39,112.56,33.9,46.61,94.83,86.47,148,88,192.94,5.57,247,0,247,0V8.84H1171.53s.18,4.16-1.82,222.16c-.33,35-57.06,83.95-96,82-11-.55-91-12-93-82-2.69-94-1-222-1-222Z"/><path class="cls-1" d="M734.61,265a94.51,94.51,0,1,1-7.9-94.58V170H854.49C832.82,72.72,746,0,642.21,0c-120.13,0-217.5,97.38-217.5,217.5S522.08,435,642.21,435c103.8,0,190.61-72.72,212.28-170Z"/><image width="5000" height="1646" transform="translate(481.71 527) scale(0.2)" xlink:href="../../../../../Dropbox/kieran/code/necpc/src/assets/ncl.png"/><text class="cls-3" transform="translate(302.62 676.05)">@</text></g></g></svg>